<?xml version="1.0" standalone="no"?>
<svg xmlns="http://www.w3.org/2000/svg" version="1.1" width="290" height="290">
	<!-- Created with https://api.qrserver.com (QR Code API, see goQR.me/api for information) -->
	<title>QR Code</title>
	<desc>https://pinataro.com/contacts/tompinataro.html</desc>
	<rect style="fill:rgb(255, 255, 255);fill-opacity:1" x="0" y="0" width="290" height="290" />
	<g id="elements">
		<path style="fill:rgb(0, 0, 0)" d="M 0,0 l 10,0 0,10 -10,0 z M 10,0 l 10,0 0,10 -10,0 z M 20,0 l 10,0 0,10 -10,0 z M 30,0 l 10,0 0,10 -10,0 z M 40,0 l 10,0 0,10 -10,0 z M 50,0 l 10,0 0,10 -10,0 z M 60,0 l 10,0 0,10 -10,0 z M 100,0 l 10,0 0,10 -10,0 z M 120,0 l 10,0 0,10 -10,0 z M 160,0 l 10,0 0,10 -10,0 z M 170,0 l 10,0 0,10 -10,0 z M 180,0 l 10,0 0,10 -10,0 z M 190,0 l 10,0 0,10 -10,0 z M 200,0 l 10,0 0,10 -10,0 z M 220,0 l 10,0 0,10 -10,0 z M 230,0 l 10,0 0,10 -10,0 z M 240,0 l 10,0 0,10 -10,0 z M 250,0 l 10,0 0,10 -10,0 z M 260,0 l 10,0 0,10 -10,0 z M 270,0 l 10,0 0,10 -10,0 z M 280,0 l 10,0 0,10 -10,0 z M 0,10 l 10,0 0,10 -10,0 z M 60,10 l 10,0 0,10 -10,0 z M 80,10 l 10,0 0,10 -10,0 z M 100,10 l 10,0 0,10 -10,0 z M 150,10 l 10,0 0,10 -10,0 z M 170,10 l 10,0 0,10 -10,0 z M 200,10 l 10,0 0,10 -10,0 z M 220,10 l 10,0 0,10 -10,0 z M 280,10 l 10,0 0,10 -10,0 z M 0,20 l 10,0 0,10 -10,0 z M 20,20 l 10,0 0,10 -10,0 z M 30,20 l 10,0 0,10 -10,0 z M 40,20 l 10,0 0,10 -10,0 z M 60,20 l 10,0 0,10 -10,0 z M 120,20 l 10,0 0,10 -10,0 z M 140,20 l 10,0 0,10 -10,0 z M 160,20 l 10,0 0,10 -10,0 z M 190,20 l 10,0 0,10 -10,0 z M 220,20 l 10,0 0,10 -10,0 z M 240,20 l 10,0 0,10 -10,0 z M 250,20 l 10,0 0,10 -10,0 z M 260,20 l 10,0 0,10 -10,0 z M 280,20 l 10,0 0,10 -10,0 z M 0,30 l 10,0 0,10 -10,0 z M 20,30 l 10,0 0,10 -10,0 z M 30,30 l 10,0 0,10 -10,0 z M 40,30 l 10,0 0,10 -10,0 z M 60,30 l 10,0 0,10 -10,0 z M 80,30 l 10,0 0,10 -10,0 z M 90,30 l 10,0 0,10 -10,0 z M 100,30 l 10,0 0,10 -10,0 z M 120,30 l 10,0 0,10 -10,0 z M 130,30 l 10,0 0,10 -10,0 z M 140,30 l 10,0 0,10 -10,0 z M 170,30 l 10,0 0,10 -10,0 z M 220,30 l 10,0 0,10 -10,0 z M 240,30 l 10,0 0,10 -10,0 z M 250,30 l 10,0 0,10 -10,0 z M 260,30 l 10,0 0,10 -10,0 z M 280,30 l 10,0 0,10 -10,0 z M 0,40 l 10,0 0,10 -10,0 z M 20,40 l 10,0 0,10 -10,0 z M 30,40 l 10,0 0,10 -10,0 z M 40,40 l 10,0 0,10 -10,0 z M 60,40 l 10,0 0,10 -10,0 z M 90,40 l 10,0 0,10 -10,0 z M 140,40 l 10,0 0,10 -10,0 z M 160,40 l 10,0 0,10 -10,0 z M 170,40 l 10,0 0,10 -10,0 z M 180,40 l 10,0 0,10 -10,0 z M 190,40 l 10,0 0,10 -10,0 z M 200,40 l 10,0 0,10 -10,0 z M 220,40 l 10,0 0,10 -10,0 z M 240,40 l 10,0 0,10 -10,0 z M 250,40 l 10,0 0,10 -10,0 z M 260,40 l 10,0 0,10 -10,0 z M 280,40 l 10,0 0,10 -10,0 z M 0,50 l 10,0 0,10 -10,0 z M 60,50 l 10,0 0,10 -10,0 z M 80,50 l 10,0 0,10 -10,0 z M 90,50 l 10,0 0,10 -10,0 z M 110,50 l 10,0 0,10 -10,0 z M 120,50 l 10,0 0,10 -10,0 z M 140,50 l 10,0 0,10 -10,0 z M 150,50 l 10,0 0,10 -10,0 z M 160,50 l 10,0 0,10 -10,0 z M 170,50 l 10,0 0,10 -10,0 z M 200,50 l 10,0 0,10 -10,0 z M 220,50 l 10,0 0,10 -10,0 z M 280,50 l 10,0 0,10 -10,0 z M 0,60 l 10,0 0,10 -10,0 z M 10,60 l 10,0 0,10 -10,0 z M 20,60 l 10,0 0,10 -10,0 z M 30,60 l 10,0 0,10 -10,0 z M 40,60 l 10,0 0,10 -10,0 z M 50,60 l 10,0 0,10 -10,0 z M 60,60 l 10,0 0,10 -10,0 z M 80,60 l 10,0 0,10 -10,0 z M 100,60 l 10,0 0,10 -10,0 z M 120,60 l 10,0 0,10 -10,0 z M 140,60 l 10,0 0,10 -10,0 z M 160,60 l 10,0 0,10 -10,0 z M 180,60 l 10,0 0,10 -10,0 z M 200,60 l 10,0 0,10 -10,0 z M 220,60 l 10,0 0,10 -10,0 z M 230,60 l 10,0 0,10 -10,0 z M 240,60 l 10,0 0,10 -10,0 z M 250,60 l 10,0 0,10 -10,0 z M 260,60 l 10,0 0,10 -10,0 z M 270,60 l 10,0 0,10 -10,0 z M 280,60 l 10,0 0,10 -10,0 z M 90,70 l 10,0 0,10 -10,0 z M 100,70 l 10,0 0,10 -10,0 z M 110,70 l 10,0 0,10 -10,0 z M 150,70 l 10,0 0,10 -10,0 z M 180,70 l 10,0 0,10 -10,0 z M 190,70 l 10,0 0,10 -10,0 z M 200,70 l 10,0 0,10 -10,0 z M 0,80 l 10,0 0,10 -10,0 z M 10,80 l 10,0 0,10 -10,0 z M 20,80 l 10,0 0,10 -10,0 z M 30,80 l 10,0 0,10 -10,0 z M 40,80 l 10,0 0,10 -10,0 z M 60,80 l 10,0 0,10 -10,0 z M 70,80 l 10,0 0,10 -10,0 z M 80,80 l 10,0 0,10 -10,0 z M 90,80 l 10,0 0,10 -10,0 z M 110,80 l 10,0 0,10 -10,0 z M 130,80 l 10,0 0,10 -10,0 z M 140,80 l 10,0 0,10 -10,0 z M 170,80 l 10,0 0,10 -10,0 z M 190,80 l 10,0 0,10 -10,0 z M 210,80 l 10,0 0,10 -10,0 z M 230,80 l 10,0 0,10 -10,0 z M 250,80 l 10,0 0,10 -10,0 z M 270,80 l 10,0 0,10 -10,0 z M 10,90 l 10,0 0,10 -10,0 z M 20,90 l 10,0 0,10 -10,0 z M 40,90 l 10,0 0,10 -10,0 z M 70,90 l 10,0 0,10 -10,0 z M 100,90 l 10,0 0,10 -10,0 z M 120,90 l 10,0 0,10 -10,0 z M 160,90 l 10,0 0,10 -10,0 z M 190,90 l 10,0 0,10 -10,0 z M 220,90 l 10,0 0,10 -10,0 z M 230,90 l 10,0 0,10 -10,0 z M 240,90 l 10,0 0,10 -10,0 z M 280,90 l 10,0 0,10 -10,0 z M 0,100 l 10,0 0,10 -10,0 z M 10,100 l 10,0 0,10 -10,0 z M 50,100 l 10,0 0,10 -10,0 z M 60,100 l 10,0 0,10 -10,0 z M 70,100 l 10,0 0,10 -10,0 z M 80,100 l 10,0 0,10 -10,0 z M 100,100 l 10,0 0,10 -10,0 z M 150,100 l 10,0 0,10 -10,0 z M 200,100 l 10,0 0,10 -10,0 z M 230,100 l 10,0 0,10 -10,0 z M 240,100 l 10,0 0,10 -10,0 z M 10,110 l 10,0 0,10 -10,0 z M 30,110 l 10,0 0,10 -10,0 z M 50,110 l 10,0 0,10 -10,0 z M 80,110 l 10,0 0,10 -10,0 z M 120,110 l 10,0 0,10 -10,0 z M 140,110 l 10,0 0,10 -10,0 z M 150,110 l 10,0 0,10 -10,0 z M 180,110 l 10,0 0,10 -10,0 z M 200,110 l 10,0 0,10 -10,0 z M 210,110 l 10,0 0,10 -10,0 z M 240,110 l 10,0 0,10 -10,0 z M 250,110 l 10,0 0,10 -10,0 z M 270,110 l 10,0 0,10 -10,0 z M 0,120 l 10,0 0,10 -10,0 z M 30,120 l 10,0 0,10 -10,0 z M 60,120 l 10,0 0,10 -10,0 z M 70,120 l 10,0 0,10 -10,0 z M 90,120 l 10,0 0,10 -10,0 z M 100,120 l 10,0 0,10 -10,0 z M 120,120 l 10,0 0,10 -10,0 z M 130,120 l 10,0 0,10 -10,0 z M 140,120 l 10,0 0,10 -10,0 z M 150,120 l 10,0 0,10 -10,0 z M 160,120 l 10,0 0,10 -10,0 z M 170,120 l 10,0 0,10 -10,0 z M 190,120 l 10,0 0,10 -10,0 z M 250,120 l 10,0 0,10 -10,0 z M 260,120 l 10,0 0,10 -10,0 z M 0,130 l 10,0 0,10 -10,0 z M 10,130 l 10,0 0,10 -10,0 z M 20,130 l 10,0 0,10 -10,0 z M 30,130 l 10,0 0,10 -10,0 z M 40,130 l 10,0 0,10 -10,0 z M 70,130 l 10,0 0,10 -10,0 z M 140,130 l 10,0 0,10 -10,0 z M 160,130 l 10,0 0,10 -10,0 z M 180,130 l 10,0 0,10 -10,0 z M 190,130 l 10,0 0,10 -10,0 z M 200,130 l 10,0 0,10 -10,0 z M 210,130 l 10,0 0,10 -10,0 z M 220,130 l 10,0 0,10 -10,0 z M 230,130 l 10,0 0,10 -10,0 z M 240,130 l 10,0 0,10 -10,0 z M 280,130 l 10,0 0,10 -10,0 z M 10,140 l 10,0 0,10 -10,0 z M 40,140 l 10,0 0,10 -10,0 z M 50,140 l 10,0 0,10 -10,0 z M 60,140 l 10,0 0,10 -10,0 z M 90,140 l 10,0 0,10 -10,0 z M 100,140 l 10,0 0,10 -10,0 z M 110,140 l 10,0 0,10 -10,0 z M 120,140 l 10,0 0,10 -10,0 z M 130,140 l 10,0 0,10 -10,0 z M 150,140 l 10,0 0,10 -10,0 z M 160,140 l 10,0 0,10 -10,0 z M 180,140 l 10,0 0,10 -10,0 z M 200,140 l 10,0 0,10 -10,0 z M 210,140 l 10,0 0,10 -10,0 z M 250,140 l 10,0 0,10 -10,0 z M 260,140 l 10,0 0,10 -10,0 z M 0,150 l 10,0 0,10 -10,0 z M 10,150 l 10,0 0,10 -10,0 z M 30,150 l 10,0 0,10 -10,0 z M 40,150 l 10,0 0,10 -10,0 z M 70,150 l 10,0 0,10 -10,0 z M 90,150 l 10,0 0,10 -10,0 z M 110,150 l 10,0 0,10 -10,0 z M 150,150 l 10,0 0,10 -10,0 z M 160,150 l 10,0 0,10 -10,0 z M 190,150 l 10,0 0,10 -10,0 z M 200,150 l 10,0 0,10 -10,0 z M 230,150 l 10,0 0,10 -10,0 z M 270,150 l 10,0 0,10 -10,0 z M 30,160 l 10,0 0,10 -10,0 z M 60,160 l 10,0 0,10 -10,0 z M 80,160 l 10,0 0,10 -10,0 z M 90,160 l 10,0 0,10 -10,0 z M 100,160 l 10,0 0,10 -10,0 z M 110,160 l 10,0 0,10 -10,0 z M 120,160 l 10,0 0,10 -10,0 z M 130,160 l 10,0 0,10 -10,0 z M 140,160 l 10,0 0,10 -10,0 z M 170,160 l 10,0 0,10 -10,0 z M 190,160 l 10,0 0,10 -10,0 z M 250,160 l 10,0 0,10 -10,0 z M 260,160 l 10,0 0,10 -10,0 z M 0,170 l 10,0 0,10 -10,0 z M 10,170 l 10,0 0,10 -10,0 z M 30,170 l 10,0 0,10 -10,0 z M 80,170 l 10,0 0,10 -10,0 z M 90,170 l 10,0 0,10 -10,0 z M 120,170 l 10,0 0,10 -10,0 z M 130,170 l 10,0 0,10 -10,0 z M 160,170 l 10,0 0,10 -10,0 z M 180,170 l 10,0 0,10 -10,0 z M 190,170 l 10,0 0,10 -10,0 z M 200,170 l 10,0 0,10 -10,0 z M 220,170 l 10,0 0,10 -10,0 z M 230,170 l 10,0 0,10 -10,0 z M 240,170 l 10,0 0,10 -10,0 z M 260,170 l 10,0 0,10 -10,0 z M 280,170 l 10,0 0,10 -10,0 z M 0,180 l 10,0 0,10 -10,0 z M 30,180 l 10,0 0,10 -10,0 z M 60,180 l 10,0 0,10 -10,0 z M 80,180 l 10,0 0,10 -10,0 z M 100,180 l 10,0 0,10 -10,0 z M 120,180 l 10,0 0,10 -10,0 z M 130,180 l 10,0 0,10 -10,0 z M 140,180 l 10,0 0,10 -10,0 z M 150,180 l 10,0 0,10 -10,0 z M 160,180 l 10,0 0,10 -10,0 z M 170,180 l 10,0 0,10 -10,0 z M 180,180 l 10,0 0,10 -10,0 z M 200,180 l 10,0 0,10 -10,0 z M 210,180 l 10,0 0,10 -10,0 z M 230,180 l 10,0 0,10 -10,0 z M 240,180 l 10,0 0,10 -10,0 z M 260,180 l 10,0 0,10 -10,0 z M 0,190 l 10,0 0,10 -10,0 z M 20,190 l 10,0 0,10 -10,0 z M 40,190 l 10,0 0,10 -10,0 z M 50,190 l 10,0 0,10 -10,0 z M 70,190 l 10,0 0,10 -10,0 z M 80,190 l 10,0 0,10 -10,0 z M 90,190 l 10,0 0,10 -10,0 z M 100,190 l 10,0 0,10 -10,0 z M 140,190 l 10,0 0,10 -10,0 z M 160,190 l 10,0 0,10 -10,0 z M 190,190 l 10,0 0,10 -10,0 z M 210,190 l 10,0 0,10 -10,0 z M 220,190 l 10,0 0,10 -10,0 z M 270,190 l 10,0 0,10 -10,0 z M 0,200 l 10,0 0,10 -10,0 z M 30,200 l 10,0 0,10 -10,0 z M 50,200 l 10,0 0,10 -10,0 z M 60,200 l 10,0 0,10 -10,0 z M 100,200 l 10,0 0,10 -10,0 z M 110,200 l 10,0 0,10 -10,0 z M 120,200 l 10,0 0,10 -10,0 z M 130,200 l 10,0 0,10 -10,0 z M 170,200 l 10,0 0,10 -10,0 z M 200,200 l 10,0 0,10 -10,0 z M 210,200 l 10,0 0,10 -10,0 z M 220,200 l 10,0 0,10 -10,0 z M 230,200 l 10,0 0,10 -10,0 z M 240,200 l 10,0 0,10 -10,0 z M 260,200 l 10,0 0,10 -10,0 z M 270,200 l 10,0 0,10 -10,0 z M 280,200 l 10,0 0,10 -10,0 z M 80,210 l 10,0 0,10 -10,0 z M 100,210 l 10,0 0,10 -10,0 z M 110,210 l 10,0 0,10 -10,0 z M 130,210 l 10,0 0,10 -10,0 z M 160,210 l 10,0 0,10 -10,0 z M 200,210 l 10,0 0,10 -10,0 z M 240,210 l 10,0 0,10 -10,0 z M 250,210 l 10,0 0,10 -10,0 z M 260,210 l 10,0 0,10 -10,0 z M 270,210 l 10,0 0,10 -10,0 z M 280,210 l 10,0 0,10 -10,0 z M 0,220 l 10,0 0,10 -10,0 z M 10,220 l 10,0 0,10 -10,0 z M 20,220 l 10,0 0,10 -10,0 z M 30,220 l 10,0 0,10 -10,0 z M 40,220 l 10,0 0,10 -10,0 z M 50,220 l 10,0 0,10 -10,0 z M 60,220 l 10,0 0,10 -10,0 z M 80,220 l 10,0 0,10 -10,0 z M 100,220 l 10,0 0,10 -10,0 z M 130,220 l 10,0 0,10 -10,0 z M 140,220 l 10,0 0,10 -10,0 z M 150,220 l 10,0 0,10 -10,0 z M 190,220 l 10,0 0,10 -10,0 z M 200,220 l 10,0 0,10 -10,0 z M 220,220 l 10,0 0,10 -10,0 z M 240,220 l 10,0 0,10 -10,0 z M 250,220 l 10,0 0,10 -10,0 z M 260,220 l 10,0 0,10 -10,0 z M 0,230 l 10,0 0,10 -10,0 z M 60,230 l 10,0 0,10 -10,0 z M 90,230 l 10,0 0,10 -10,0 z M 100,230 l 10,0 0,10 -10,0 z M 150,230 l 10,0 0,10 -10,0 z M 160,230 l 10,0 0,10 -10,0 z M 180,230 l 10,0 0,10 -10,0 z M 190,230 l 10,0 0,10 -10,0 z M 200,230 l 10,0 0,10 -10,0 z M 240,230 l 10,0 0,10 -10,0 z M 270,230 l 10,0 0,10 -10,0 z M 280,230 l 10,0 0,10 -10,0 z M 0,240 l 10,0 0,10 -10,0 z M 20,240 l 10,0 0,10 -10,0 z M 30,240 l 10,0 0,10 -10,0 z M 40,240 l 10,0 0,10 -10,0 z M 60,240 l 10,0 0,10 -10,0 z M 80,240 l 10,0 0,10 -10,0 z M 90,240 l 10,0 0,10 -10,0 z M 100,240 l 10,0 0,10 -10,0 z M 110,240 l 10,0 0,10 -10,0 z M 120,240 l 10,0 0,10 -10,0 z M 130,240 l 10,0 0,10 -10,0 z M 140,240 l 10,0 0,10 -10,0 z M 150,240 l 10,0 0,10 -10,0 z M 160,240 l 10,0 0,10 -10,0 z M 170,240 l 10,0 0,10 -10,0 z M 200,240 l 10,0 0,10 -10,0 z M 210,240 l 10,0 0,10 -10,0 z M 220,240 l 10,0 0,10 -10,0 z M 230,240 l 10,0 0,10 -10,0 z M 240,240 l 10,0 0,10 -10,0 z M 260,240 l 10,0 0,10 -10,0 z M 280,240 l 10,0 0,10 -10,0 z M 0,250 l 10,0 0,10 -10,0 z M 20,250 l 10,0 0,10 -10,0 z M 30,250 l 10,0 0,10 -10,0 z M 40,250 l 10,0 0,10 -10,0 z M 60,250 l 10,0 0,10 -10,0 z M 80,250 l 10,0 0,10 -10,0 z M 90,250 l 10,0 0,10 -10,0 z M 110,250 l 10,0 0,10 -10,0 z M 130,250 l 10,0 0,10 -10,0 z M 160,250 l 10,0 0,10 -10,0 z M 200,250 l 10,0 0,10 -10,0 z M 250,250 l 10,0 0,10 -10,0 z M 260,250 l 10,0 0,10 -10,0 z M 270,250 l 10,0 0,10 -10,0 z M 280,250 l 10,0 0,10 -10,0 z M 0,260 l 10,0 0,10 -10,0 z M 20,260 l 10,0 0,10 -10,0 z M 30,260 l 10,0 0,10 -10,0 z M 40,260 l 10,0 0,10 -10,0 z M 60,260 l 10,0 0,10 -10,0 z M 80,260 l 10,0 0,10 -10,0 z M 90,260 l 10,0 0,10 -10,0 z M 120,260 l 10,0 0,10 -10,0 z M 150,260 l 10,0 0,10 -10,0 z M 160,260 l 10,0 0,10 -10,0 z M 170,260 l 10,0 0,10 -10,0 z M 180,260 l 10,0 0,10 -10,0 z M 190,260 l 10,0 0,10 -10,0 z M 200,260 l 10,0 0,10 -10,0 z M 210,260 l 10,0 0,10 -10,0 z M 220,260 l 10,0 0,10 -10,0 z M 230,260 l 10,0 0,10 -10,0 z M 240,260 l 10,0 0,10 -10,0 z M 250,260 l 10,0 0,10 -10,0 z M 260,260 l 10,0 0,10 -10,0 z M 270,260 l 10,0 0,10 -10,0 z M 0,270 l 10,0 0,10 -10,0 z M 60,270 l 10,0 0,10 -10,0 z M 80,270 l 10,0 0,10 -10,0 z M 90,270 l 10,0 0,10 -10,0 z M 100,270 l 10,0 0,10 -10,0 z M 160,270 l 10,0 0,10 -10,0 z M 200,270 l 10,0 0,10 -10,0 z M 220,270 l 10,0 0,10 -10,0 z M 240,270 l 10,0 0,10 -10,0 z M 250,270 l 10,0 0,10 -10,0 z M 270,270 l 10,0 0,10 -10,0 z M 0,280 l 10,0 0,10 -10,0 z M 10,280 l 10,0 0,10 -10,0 z M 20,280 l 10,0 0,10 -10,0 z M 30,280 l 10,0 0,10 -10,0 z M 40,280 l 10,0 0,10 -10,0 z M 50,280 l 10,0 0,10 -10,0 z M 60,280 l 10,0 0,10 -10,0 z M 80,280 l 10,0 0,10 -10,0 z M 100,280 l 10,0 0,10 -10,0 z M 130,280 l 10,0 0,10 -10,0 z M 140,280 l 10,0 0,10 -10,0 z M 170,280 l 10,0 0,10 -10,0 z M 180,280 l 10,0 0,10 -10,0 z M 220,280 l 10,0 0,10 -10,0 z M 240,280 l 10,0 0,10 -10,0 z M 250,280 l 10,0 0,10 -10,0 z M 260,280 l 10,0 0,10 -10,0 z " />
	</g>
</svg>
